<svg width="82" height="99" viewBox="0 0 82 99" fill="none" xmlns="http://www.w3.org/2000/svg">
<path d="M0 21.1077C0 18.6715 1.47311 16.4771 3.72789 15.5546L39.4301 0.946785C40.911 0.340845 42.5727 0.351554 44.0457 0.976528L78.3435 15.5285C80.5603 16.469 82 18.6438 82 21.0519V76.3924C82 78.7874 80.5756 80.9531 78.3764 81.9017L41.2513 97.9156C39.6546 98.6044 37.8375 98.5665 36.2709 97.8118L3.39597 81.9746C1.31985 80.9745 0 78.8736 0 76.5692V21.1077Z" fill="#0CA79F"/>
<path d="M59.7855 33.4285H21.2141C20.3265 33.4285 19.6069 34.148 19.6069 35.0356V60.7499C19.6069 61.6375 20.3265 62.357 21.2141 62.357H59.7855C60.6731 62.357 61.3926 61.6375 61.3926 60.7499V35.0356C61.3926 34.148 60.6731 33.4285 59.7855 33.4285Z" stroke="white" stroke-width="3" stroke-linecap="round" stroke-linejoin="round"/>
<path d="M37.2855 62.3569L34.0712 70.3926M43.7141 62.3569L46.9284 70.3926M30.8569 70.3926H50.1426" stroke="white" stroke-width="3" stroke-linecap="round" stroke-linejoin="round"/>
</svg>
