<svg width="319" height="99" viewBox="0 0 319 99" fill="none" xmlns="http://www.w3.org/2000/svg">
<path d="M0 21.1077C0 18.6715 1.47311 16.4771 3.72789 15.5546L39.4301 0.946785C40.911 0.340845 42.5727 0.351554 44.0457 0.976528L78.3435 15.5285C80.5603 16.469 82 18.6438 82 21.0519V76.3924C82 78.7874 80.5756 80.9531 78.3764 81.9017L41.2513 97.9156C39.6546 98.6044 37.8375 98.5665 36.2709 97.8118L3.39597 81.9746C1.31985 80.9745 0 78.8736 0 76.5692V21.1077Z" fill="#ffc200"/>
<path d="M59.7855 33.4285H21.2141C20.3265 33.4285 19.6069 34.148 19.6069 35.0356V60.7499C19.6069 61.6375 20.3265 62.357 21.2141 62.357H59.7855C60.6731 62.357 61.3926 61.6375 61.3926 60.7499V35.0356C61.3926 34.148 60.6731 33.4285 59.7855 33.4285Z" stroke="white" stroke-width="3" stroke-linecap="round" stroke-linejoin="round"/>
<path d="M37.2855 62.3569L34.0712 70.3926M43.7141 62.3569L46.9284 70.3926M30.8569 70.3926H50.1426" stroke="white" stroke-width="3" stroke-linecap="round" stroke-linejoin="round"/>
<path d="M112.035 43H97.2344V17.3008H112.035V21.7656H102.684V27.4082H111.385V31.873H102.684V38.5H112.035V43ZM144.136 29.9043C144.136 32.7988 143.58 35.2188 142.466 37.1641C141.365 39.0977 139.765 40.5566 137.668 41.541C135.57 42.5137 133.045 43 130.091 43H122.814V17.3008H130.882C133.578 17.3008 135.916 17.7812 137.896 18.7422C139.877 19.6914 141.412 21.1035 142.502 22.9785C143.591 24.8418 144.136 27.1504 144.136 29.9043ZM138.476 30.0449C138.476 28.1465 138.195 26.5879 137.632 25.3691C137.082 24.1387 136.261 23.2305 135.171 22.6445C134.093 22.0586 132.757 21.7656 131.164 21.7656H128.263V38.5H130.601C133.261 38.5 135.236 37.791 136.525 36.373C137.826 34.9551 138.476 32.8457 138.476 30.0449ZM175.78 17.3008V33.9297C175.78 35.6992 175.388 37.2988 174.603 38.7285C173.829 40.1465 172.652 41.2715 171.07 42.1035C169.499 42.9355 167.519 43.3516 165.128 43.3516C161.73 43.3516 159.14 42.4844 157.359 40.75C155.577 39.0156 154.687 36.7188 154.687 33.8594V17.3008H160.118V33.0332C160.118 35.1543 160.552 36.6426 161.419 37.498C162.286 38.3535 163.57 38.7812 165.269 38.7812C166.464 38.7812 167.431 38.5762 168.169 38.166C168.919 37.7559 169.47 37.123 169.821 36.2676C170.173 35.4121 170.349 34.3223 170.349 32.998V17.3008H175.78Z" fill="#201C19"/>
<path d="M112.404 70.8633C112.404 72.3867 112.035 73.7109 111.297 74.8359C110.559 75.9609 109.48 76.8281 108.062 77.4375C106.656 78.0469 104.945 78.3516 102.93 78.3516C102.039 78.3516 101.166 78.293 100.311 78.1758C99.4668 78.0586 98.6523 77.8887 97.8672 77.666C97.0938 77.4316 96.3555 77.1445 95.6523 76.8047V71.7422C96.8711 72.2812 98.1367 72.7676 99.4492 73.2012C100.762 73.6348 102.062 73.8516 103.352 73.8516C104.242 73.8516 104.957 73.7344 105.496 73.5C106.047 73.2656 106.445 72.9434 106.691 72.5332C106.938 72.123 107.061 71.6543 107.061 71.127C107.061 70.4824 106.844 69.9316 106.41 69.4746C105.977 69.0176 105.379 68.5898 104.617 68.1914C103.867 67.793 103.018 67.3652 102.068 66.9082C101.471 66.627 100.82 66.2871 100.117 65.8887C99.4141 65.4785 98.7461 64.9805 98.1133 64.3945C97.4805 63.8086 96.959 63.0996 96.5488 62.2676C96.1504 61.4238 95.9512 60.416 95.9512 59.2441C95.9512 57.709 96.3027 56.3965 97.0059 55.3066C97.709 54.2168 98.7109 53.3848 100.012 52.8105C101.324 52.2246 102.871 51.9316 104.652 51.9316C105.988 51.9316 107.26 52.0898 108.467 52.4062C109.686 52.7109 110.957 53.1562 112.281 53.7422L110.523 57.9785C109.34 57.498 108.279 57.1289 107.342 56.8711C106.404 56.6016 105.449 56.4668 104.477 56.4668C103.797 56.4668 103.217 56.5781 102.736 56.8008C102.256 57.0117 101.893 57.3164 101.646 57.7148C101.4 58.1016 101.277 58.5527 101.277 59.0684C101.277 59.6777 101.453 60.1934 101.805 60.6152C102.168 61.0254 102.707 61.4238 103.422 61.8105C104.148 62.1973 105.051 62.6484 106.129 63.1641C107.441 63.7852 108.561 64.4355 109.486 65.1152C110.424 65.7832 111.145 66.5742 111.648 67.4883C112.152 68.3906 112.404 69.5156 112.404 70.8633ZM128.88 74.0801C129.466 74.0801 130.034 74.0215 130.585 73.9043C131.147 73.7871 131.704 73.6406 132.255 73.4648V77.4551C131.681 77.7129 130.966 77.9238 130.11 78.0879C129.267 78.2637 128.341 78.3516 127.333 78.3516C126.161 78.3516 125.106 78.1641 124.169 77.7891C123.243 77.4023 122.511 76.7402 121.972 75.8027C121.444 74.8535 121.181 73.5352 121.181 71.8477V62.373H118.614V60.1055L121.567 58.3125L123.114 54.1641H126.542V58.3477H132.044V62.373H126.542V71.8477C126.542 72.5977 126.753 73.1602 127.175 73.5352C127.608 73.8984 128.177 74.0801 128.88 74.0801ZM151.174 57.9785C151.443 57.9785 151.754 57.9961 152.106 58.0312C152.469 58.0547 152.762 58.0898 152.984 58.1367L152.58 63.1641C152.404 63.1055 152.152 63.0645 151.824 63.041C151.508 63.0059 151.232 62.9883 150.998 62.9883C150.307 62.9883 149.633 63.0762 148.977 63.252C148.332 63.4277 147.752 63.7148 147.236 64.1133C146.721 64.5 146.311 65.0156 146.006 65.6602C145.713 66.293 145.566 67.0723 145.566 67.998V78H140.205V58.3477H144.266L145.057 61.6523H145.32C145.707 60.9844 146.188 60.375 146.762 59.8242C147.348 59.2617 148.01 58.8164 148.748 58.4883C149.498 58.1484 150.307 57.9785 151.174 57.9785ZM168.616 57.9785C170.433 57.9785 171.997 58.3301 173.31 59.0332C174.622 59.7246 175.636 60.7324 176.351 62.0566C177.066 63.3809 177.423 64.998 177.423 66.9082V69.5098H164.749C164.808 71.0215 165.259 72.2109 166.103 73.0781C166.958 73.9336 168.142 74.3613 169.653 74.3613C170.907 74.3613 172.056 74.2324 173.099 73.9746C174.142 73.7168 175.214 73.3301 176.316 72.8145V76.9629C175.343 77.4434 174.323 77.7949 173.257 78.0176C172.202 78.2402 170.919 78.3516 169.407 78.3516C167.439 78.3516 165.693 77.9883 164.169 77.2617C162.657 76.5352 161.468 75.4277 160.601 73.9395C159.745 72.4512 159.318 70.5762 159.318 68.3145C159.318 66.0176 159.704 64.1074 160.478 62.584C161.263 61.0488 162.353 59.9004 163.747 59.1387C165.142 58.3652 166.765 57.9785 168.616 57.9785ZM168.651 61.793C167.609 61.793 166.741 62.127 166.05 62.7949C165.37 63.4629 164.978 64.5117 164.872 65.9414H172.396C172.384 65.1445 172.237 64.4355 171.956 63.8145C171.687 63.1934 171.276 62.7012 170.726 62.3379C170.187 61.9746 169.495 61.793 168.651 61.793ZM193.793 57.9434C196.43 57.9434 198.451 58.5176 199.858 59.666C201.264 60.8145 201.967 62.5605 201.967 64.9043V78H198.223L197.186 75.3281H197.045C196.483 76.0312 195.908 76.6055 195.322 77.0508C194.736 77.4961 194.063 77.8242 193.301 78.0352C192.539 78.2461 191.613 78.3516 190.524 78.3516C189.363 78.3516 188.32 78.1289 187.395 77.6836C186.481 77.2383 185.76 76.5586 185.233 75.6445C184.705 74.7188 184.442 73.5469 184.442 72.1289C184.442 70.043 185.174 68.5078 186.639 67.5234C188.104 66.5273 190.301 65.9766 193.231 65.8711L196.641 65.7656V64.9043C196.641 63.873 196.371 63.1172 195.832 62.6367C195.293 62.1562 194.543 61.916 193.582 61.916C192.633 61.916 191.701 62.0508 190.787 62.3203C189.873 62.5898 188.959 62.9297 188.045 63.3398L186.27 59.7188C187.313 59.168 188.479 58.7344 189.768 58.418C191.069 58.1016 192.41 57.9434 193.793 57.9434ZM196.641 68.8945L194.567 68.9648C192.832 69.0117 191.625 69.3223 190.945 69.8965C190.277 70.4707 189.944 71.2266 189.944 72.1641C189.944 72.9844 190.184 73.5703 190.664 73.9219C191.145 74.2617 191.772 74.4316 192.545 74.4316C193.694 74.4316 194.66 74.0918 195.445 73.4121C196.242 72.7324 196.641 71.7656 196.641 70.5117V68.8945ZM234.544 57.9785C236.771 57.9785 238.452 58.5527 239.589 59.7012C240.738 60.8379 241.312 62.666 241.312 65.1855V78H235.933V66.5215C235.933 65.1152 235.693 64.0547 235.212 63.3398C234.732 62.625 233.988 62.2676 232.98 62.2676C231.562 62.2676 230.554 62.7773 229.956 63.7969C229.359 64.8047 229.06 66.252 229.06 68.1387V78H223.698V66.5215C223.698 65.584 223.593 64.7988 223.382 64.166C223.171 63.5332 222.849 63.0586 222.415 62.7422C221.982 62.4258 221.425 62.2676 220.745 62.2676C219.749 62.2676 218.964 62.5195 218.39 63.0234C217.827 63.5156 217.423 64.248 217.177 65.2207C216.943 66.1816 216.825 67.3594 216.825 68.7539V78H211.464V58.3477H215.56L216.28 60.8613H216.579C216.978 60.1816 217.476 59.6309 218.073 59.209C218.683 58.7871 219.351 58.4766 220.077 58.2773C220.804 58.0781 221.542 57.9785 222.292 57.9785C223.734 57.9785 224.952 58.2129 225.948 58.6816C226.956 59.1504 227.73 59.877 228.269 60.8613H228.743C229.329 59.8535 230.155 59.1211 231.222 58.6641C232.3 58.207 233.407 57.9785 234.544 57.9785ZM264.502 72.1641C264.502 73.5 264.186 74.6309 263.553 75.5566C262.932 76.4707 262 77.168 260.758 77.6484C259.516 78.1172 257.969 78.3516 256.117 78.3516C254.746 78.3516 253.569 78.2637 252.584 78.0879C251.612 77.9121 250.627 77.6191 249.631 77.209V72.7793C250.697 73.2598 251.84 73.6582 253.059 73.9746C254.289 74.2793 255.367 74.4316 256.293 74.4316C257.336 74.4316 258.08 74.2793 258.526 73.9746C258.983 73.6582 259.211 73.248 259.211 72.7441C259.211 72.416 259.117 72.123 258.93 71.8652C258.754 71.5957 258.367 71.2969 257.77 70.9688C257.172 70.6289 256.235 70.1895 254.957 69.6504C253.727 69.1348 252.713 68.6133 251.916 68.0859C251.131 67.5586 250.545 66.9375 250.158 66.2227C249.783 65.4961 249.596 64.5762 249.596 63.4629C249.596 61.6465 250.299 60.2812 251.705 59.3672C253.123 58.4414 255.016 57.9785 257.383 57.9785C258.602 57.9785 259.762 58.1016 260.864 58.3477C261.977 58.5938 263.119 58.9863 264.291 59.5254L262.674 63.3926C261.701 62.9707 260.781 62.625 259.914 62.3555C259.059 62.0859 258.186 61.9512 257.295 61.9512C256.51 61.9512 255.918 62.0566 255.52 62.2676C255.121 62.4785 254.922 62.8008 254.922 63.2344C254.922 63.5508 255.022 63.832 255.221 64.0781C255.432 64.3242 255.83 64.5996 256.416 64.9043C257.014 65.1973 257.887 65.5781 259.035 66.0469C260.149 66.5039 261.115 66.9844 261.936 67.4883C262.756 67.9805 263.389 68.5957 263.834 69.334C264.28 70.0605 264.502 71.0039 264.502 72.1641Z" fill="#201C19"/>

</svg>
